<?xml version="1.0" encoding="UTF-8"?>
<!DOCTYPE svg PUBLIC "-//W3C//DTD SVG 1.1//EN" "http://www.w3.org/Graphics/SVG/1.1/DTD/svg11.dtd">
<svg xmlns="http://www.w3.org/2000/svg" version="1.1" width="128px" height="128px" style="shape-rendering:geometricPrecision; text-rendering:geometricPrecision; image-rendering:optimizeQuality; fill-rule:evenodd; clip-rule:evenodd" xmlns:xlink="http://www.w3.org/1999/xlink">
<g><path style="opacity:0.909" fill="#ff6633" d="M 127.5,70.5 C 127.5,75.5 127.5,80.5 127.5,85.5C 124.281,93.8807 118.281,99.3807 109.5,102C 80.5,102.667 51.5,102.667 22.5,102C 11.1616,99.1555 3.49492,92.3222 -0.5,81.5C -0.5,76.5 -0.5,71.5 -0.5,66.5C 4.50256,52.6311 14.5026,44.9644 29.5,43.5C 40.474,24.0166 56.8073,17.1832 78.5,23C 92.3683,28.7038 101.035,38.8705 104.5,53.5C 115.743,54.5956 123.41,60.2622 127.5,70.5 Z M 62.5,29.5 C 83.6381,30.9717 94.6381,42.305 95.5,63.5C 108.715,60.4303 116.715,65.4303 119.5,78.5C 118.609,84.4596 115.609,88.9596 110.5,92C 81.2282,93.6424 51.8948,93.9757 22.5,93C 9.59059,87.2576 5.42393,77.7576 10,64.5C 16.0345,54.9868 24.5345,51.6534 35.5,54.5C 39.0897,40.2411 48.0897,31.9078 62.5,29.5 Z M 59.5,57.5 C 65.1394,60.6546 70.8061,63.8212 76.5,67C 71.2972,70.3658 65.9639,73.5324 60.5,76.5C 59.5037,70.2015 59.1703,63.8682 59.5,57.5 Z"/></g>
<g><path style="opacity:0.913" fill="#ff6633" d="M 55.5,45.5 C 65.8197,50.2966 75.8197,55.7966 85.5,62C 88.4198,65.9797 88.0865,69.6463 84.5,73C 75.3984,78.3003 66.2317,83.467 57,88.5C 54.8606,87.7636 52.8606,86.7636 51,85.5C 50.1674,73.1532 50.3341,60.8198 51.5,48.5C 52.9014,47.4793 54.2347,46.4793 55.5,45.5 Z M 59.5,57.5 C 59.1703,63.8682 59.5037,70.2015 60.5,76.5C 65.9639,73.5324 71.2972,70.3658 76.5,67C 70.8061,63.8212 65.1394,60.6546 59.5,57.5 Z"/></g>
</svg>
